# xmcd
# Track frame offsets:
# 150
# 10895
# 24295
# 33258
# 45132
# 54035
# 65357
# 78316
# 91669
# 102803
# 114374
# 126115
#
# Disc length: 1842 seconds
# Revision: 0
# Processed by: cddbd v1.5.1PL2 Copyright (c) Steve Scherf et al.
# Submitted via: VisiTrax 2.10.0.248 - For more info visit www.synapsa.com
#
DISCID=7607300c
DTITLE=Glen Campbell - Glen Campbell Country
DYEAR=1971
DGENRE=
TTITLE0=Try a Little Kindness
TTITLE1=Honey Come Back
TTITLE2=People Get Ready
TTITLE3=By the Time I Get to Phoenix
TTITLE4=It's Over
TTITLE5=You're My World
TTITLE6=Where's the Playground, Susie?
TTITLE7=Mary in the Morning
TTITLE8=True Grit
TTITLE9=Norwood (Me and My Guitar)
TTITLE10=Galveston
TTITLE11=Folk Singer
EXTD=
EXTT0=
EXTT1=
EXTT2=
EXTT3=
EXTT4=
EXTT5=
EXTT6=
EXTT7=
EXTT8=
EXTT9=
EXTT10=
EXTT11=
PLAYORDER=
